<svg fill='white' id="Capa_1" enable-background="new 0 0 511.99 511.99" height="512" viewBox="0 0 511.99 511.99" width="512" xmlns="http://www.w3.org/2000/svg"><g><path d="m485.285 50.177h-352.8c-4.143 0-7.5 3.357-7.5 7.5s3.357 7.5 7.5 7.5h352.8c6.454 0 11.705 5.251 11.705 11.706v16.215c-3.537-1.732-7.509-2.708-11.705-2.708h-458.579c-4.197 0-8.169.976-11.706 2.708v-16.215c0-6.455 5.251-11.706 11.706-11.706h75.792c4.143 0 7.5-3.357 7.5-7.5s-3.357-7.5-7.5-7.5h-75.792c-14.726 0-26.706 11.981-26.706 26.706v315.33c0 14.726 11.98 26.706 26.706 26.706h75.465l20.853 36.12c2.45 4.241 6.837 6.773 11.734 6.773 4.898 0 9.285-2.532 11.735-6.774l20.853-36.119h67.614c4.143 0 7.5-3.357 7.5-7.5s-3.357-7.5-7.5-7.5h-68.45c-4.824 0-9.32 2.595-11.735 6.774l-20.017 34.67-20.017-34.672c-2.414-4.178-6.91-6.772-11.734-6.772h-76.301c-6.455 0-11.706-5.251-11.706-11.706v-275.117c0-6.455 5.251-11.706 11.706-11.706h458.579c6.454 0 11.705 5.251 11.705 11.706v275.117c0 6.455-5.251 11.706-11.705 11.706h-220.338c-4.143 0-7.5 3.357-7.5 7.5s3.357 7.5 7.5 7.5h220.338c14.726 0 26.705-11.98 26.705-26.706v-315.33c0-14.725-11.979-26.706-26.705-26.706z"/><path d="m69.907 213.101c3.263 2.774 7.778 3.195 11.495 1.098l9.475-5.351c8.123-4.585 14.438-11.506 18.261-20.016 4.114-9.154 4.927-19.529 2.288-29.213l-4.236-15.546c-2.354-8.64-10.251-14.674-19.205-14.674h-17.073c-10.976 0-19.904 8.93-19.904 19.905v14.145c0 10.976 8.929 19.905 19.904 19.905h2.871l-6.815 18.581c-1.473 4.016-.32 8.398 2.939 11.166zm1.005-44.746c-2.704 0-4.904-2.2-4.904-4.905v-14.145c0-2.705 2.2-4.905 4.904-4.905h17.072c2.206 0 4.152 1.486 4.732 3.616l4.236 15.547c1.728 6.339 1.195 13.129-1.497 19.121-2.146 4.775-5.489 8.786-9.751 11.726l3.123-8.515c1.467-3.998.887-8.471-1.552-11.963s-6.438-5.577-10.697-5.577z"/><path d="m144.12 213.101c3.263 2.774 7.778 3.195 11.495 1.098l9.477-5.351c8.121-4.585 14.436-11.507 18.259-20.016 4.114-9.154 4.927-19.529 2.288-29.213l-4.235-15.546c-2.354-8.64-10.251-14.674-19.205-14.674h-17.072c-10.976 0-19.905 8.93-19.905 19.905v14.145c0 10.976 8.93 19.905 19.905 19.905h2.87l-6.815 18.581c-1.474 4.016-.321 8.398 2.938 11.166zm1.006-44.746c-2.705 0-4.905-2.2-4.905-4.905v-14.145c0-2.705 2.2-4.905 4.905-4.905h17.072c2.206 0 4.152 1.486 4.732 3.616l4.235 15.547c1.728 6.339 1.195 13.129-1.497 19.121-2.146 4.775-5.49 8.787-9.75 11.726l3.123-8.515c1.467-3.998.887-8.471-1.552-11.963s-6.438-5.577-10.697-5.577z"/><path d="m343.725 360.049c3.263 2.774 7.778 3.195 11.495 1.098l9.476-5.35c8.123-4.587 14.437-11.508 18.26-20.016 4.114-9.155 4.927-19.53 2.288-29.213l-4.236-15.548c-2.354-8.639-10.251-14.673-19.205-14.673h-17.072c-10.976 0-19.904 8.93-19.904 19.905v14.145c0 10.976 8.929 19.905 19.904 19.905h2.871l-6.815 18.581c-1.475 4.016-.321 8.399 2.938 11.166zm1.004-44.746c-2.704 0-4.904-2.2-4.904-4.905v-14.145c0-2.705 2.2-4.905 4.904-4.905h17.072c2.206 0 4.152 1.487 4.732 3.616l4.236 15.548c1.728 6.338 1.195 13.129-1.497 19.121-2.146 4.774-5.49 8.786-9.751 11.725l3.123-8.514c1.467-4 .887-8.472-1.552-11.964s-6.438-5.577-10.697-5.577z"/><path d="m417.938 360.05c3.272 2.778 7.784 3.192 11.493 1.097l9.478-5.351c8.122-4.586 14.437-11.507 18.259-20.015 4.114-9.155 4.927-19.53 2.288-29.213l-4.235-15.548c-2.354-8.639-10.251-14.673-19.205-14.673h-17.072c-10.976 0-19.905 8.93-19.905 19.905v14.145c0 10.976 8.93 19.905 19.905 19.905h2.871l-6.816 18.581c-1.474 4.016-.319 8.399 2.939 11.167zm1.005-44.747c-2.705 0-4.905-2.2-4.905-4.905v-14.145c0-2.705 2.2-4.905 4.905-4.905h17.072c2.206 0 4.152 1.487 4.732 3.616l4.235 15.548c1.728 6.338 1.195 13.129-1.497 19.121-2.146 4.774-5.489 8.786-9.75 11.725l3.123-8.514c1.467-3.999.887-8.472-1.552-11.964s-6.438-5.577-10.697-5.577z"/><path d="m131.98 248.912h248.03c4.143 0 7.5-3.357 7.5-7.5s-3.357-7.5-7.5-7.5h-248.03c-4.143 0-7.5 3.357-7.5 7.5s3.358 7.5 7.5 7.5z"/><path d="m380.011 179.956c4.143 0 7.5-3.357 7.5-7.5s-3.357-7.5-7.5-7.5h-165.815c-4.143 0-7.5 3.357-7.5 7.5s3.357 7.5 7.5 7.5z"/><path d="m131.98 326.905h165.814c4.143 0 7.5-3.357 7.5-7.5s-3.357-7.5-7.5-7.5h-165.814c-4.143 0-7.5 3.357-7.5 7.5s3.358 7.5 7.5 7.5z"/></g></svg>