<svg width="11" height="12" viewBox="0 0 11 12" fill="none" xmlns="http://www.w3.org/2000/svg">
<path d="M9.77778 1.2H8.55556V0H7.33333V1.2H3.66667V0H2.44444V1.2H1.22222C0.548167 1.2 0 1.7382 0 2.4V10.8C0 11.4618 0.548167 12 1.22222 12H9.77778C10.4518 12 11 11.4618 11 10.8V2.4C11 1.7382 10.4518 1.2 9.77778 1.2ZM7.54844 8.2266L5.50122 10.2L3.45461 8.2266C3.32839 8.10741 3.22797 7.96443 3.15938 7.80622C3.09078 7.64802 3.05543 7.47784 3.05543 7.3059C3.05543 7.13396 3.09078 6.96378 3.15938 6.80558C3.22797 6.64737 3.32839 6.50439 3.45461 6.3852C3.70898 6.13864 4.05203 6.00039 4.40947 6.00039C4.76691 6.00039 5.10997 6.13864 5.36433 6.3852L5.50122 6.5166L5.63811 6.3852C5.89258 6.1386 6.23573 6.00034 6.59328 6.00034C6.95082 6.00034 7.29398 6.1386 7.54844 6.3852C7.67467 6.50439 7.77509 6.64737 7.84368 6.80558C7.91227 6.96378 7.94763 7.13396 7.94763 7.3059C7.94763 7.47784 7.91227 7.64802 7.84368 7.80622C7.77509 7.96443 7.67467 8.10741 7.54844 8.2266ZM9.77778 4.2H1.22222V3H9.77778V4.2Z" fill="#FF8F57"/>
</svg>
